<svg width="40" height="39" viewBox="0 0 40 39" fill="none" xmlns="http://www.w3.org/2000/svg">
<g clip-path="url(#clip0_35_622)">
<path d="M6.49512 35.75V22.8134C6.49524 18.4818 5.62948 14.1939 3.94874 10.2017L3.24512 8.53125V8.125H12.9951M34.1201 35.75V22.8134C34.12 18.4818 34.9857 14.1939 36.6665 10.2017L37.3701 8.53125V8.125H27.6201M27.6201 35.75V25.1875H12.9951V35.75M39.8076 38.1875H0.807617M20.3076 4.0625V8.125M20.3076 8.125V12.1875M20.3076 8.125H24.3701M20.3076 8.125H16.2451M20.3076 25.1875V35.75M12.9951 0.8125H27.6201V15.4375H12.9951V0.8125Z" stroke="url(#paint0_linear_35_622)" stroke-width="1.625"/>
</g>
<defs>
<linearGradient id="paint0_linear_35_622" x1="0.807617" y1="19.5" x2="39.8076" y2="19.5" gradientUnits="userSpaceOnUse">
<stop stop-color="#A57F41"/>
<stop offset="1" stop-color="#EDC670"/>
</linearGradient>
<clipPath id="clip0_35_622">
<rect width="39" height="39" fill="white" transform="translate(0.807617)"/>
</clipPath>
</defs>
</svg>
