<svg width="40" height="39" viewBox="0 0 40 39" fill="none" xmlns="http://www.w3.org/2000/svg">
<g clip-path="url(#clip0_35_636)">
<path d="M36.2445 2.51006C36.6418 2.51006 36.9215 2.58387 37.0672 2.63993C37.2421 3.10549 37.4767 4.77392 35.7521 6.49967L26.9546 15.2966L27.018 16.388C27.1514 18.6719 27.3988 22.7651 27.6121 26.2739C27.8004 29.3969 27.979 32.3463 27.9905 32.5973C27.9966 32.7698 27.9991 32.8107 27.8382 33.0044C27.4787 33.4414 26.8078 34.1818 26.2423 34.7954C25.3654 32.4328 23.5226 27.4426 22.505 24.6493L21.1973 21.0552L18.4922 23.7602L13.5179 28.5432L12.8251 29.2348L12.8037 30.2129C12.7873 30.9935 12.7909 32.3945 12.7928 33.6297C12.7952 34.4901 12.7977 35.2719 12.7916 35.7028C12.7806 35.7229 12.9579 35.7466 12.9415 35.7753C12.8354 35.6052 12.7215 35.4218 12.6008 35.2311C11.5978 33.6315 10.2097 31.4188 9.78614 30.7284L9.47657 30.2226L8.96836 29.9155C7.12012 28.7991 5.07262 27.5103 3.8234 26.7053C3.86667 26.6803 3.90197 26.8126 3.93061 26.7973H4.01166C4.40471 26.7973 5.0543 26.8058 5.7825 26.8162C6.73496 26.829 7.81538 26.8448 8.6423 26.8448C8.95918 26.8448 9.24071 26.8424 9.46739 26.8375L10.4454 26.815L11.1371 26.1233L15.9262 21.1831L18.622 18.4885L15.0444 17.1722C12.3559 16.1833 7.20604 14.26 4.79718 13.3551C5.41505 12.7859 6.15971 12.1101 6.59419 11.7506C6.71546 11.6506 6.80995 11.5995 6.87511 11.5995L6.96104 11.6019C7.22977 11.6147 10.5673 11.8329 13.7939 12.0437C17.2192 12.2674 21.0851 12.5196 23.2831 12.6592L24.3818 12.7281L33.1805 3.92868C34.4163 2.6947 35.6302 2.51006 36.2445 2.51006ZM36.2446 0.0726699C34.8046 0.0726699 33.0369 0.625906 31.458 2.20541L23.4368 10.226C18.9189 9.9402 7.34807 9.17483 7.06105 9.16691C6.99915 9.16377 6.93717 9.16213 6.87519 9.16199C6.48458 9.16199 5.81 9.23695 5.04219 9.87131C4.14092 10.6166 2.26161 12.3838 2.26161 12.3838C1.80824 12.8384 1.5785 13.4015 1.63335 13.931C1.66686 14.2509 1.84053 14.8341 2.62602 15.1413C3.10316 15.3283 10.6966 18.1692 14.203 19.4593L9.41388 24.3995C9.20178 24.4044 8.93914 24.4068 8.64238 24.4068C7.18232 24.4068 4.91849 24.3593 4.01109 24.3593C3.89104 24.3593 3.79476 24.3593 3.72647 24.3617C3.45043 24.3702 2.87883 24.2344 1.37124 25.4945L1.26399 25.5945C0.811833 26.0466 0.705801 26.4976 0.696051 26.7956C0.686301 27.1027 0.768567 27.5451 1.2128 27.901C1.47971 28.1167 4.90135 30.3074 7.70748 32.0021C8.38027 33.0996 11.4759 38.0196 11.6374 38.2865C11.8732 38.6851 12.2589 38.9124 12.7203 38.927H12.7587C13.2072 38.927 13.6679 38.7046 14.1188 38.2664C15.3948 36.7741 15.2187 36.1562 15.2242 35.8966C15.2443 35.0824 15.2101 31.6334 15.2394 30.2659L20.2131 25.4823C21.4843 28.9741 24.263 36.4895 24.4489 36.9678C24.7584 37.7533 25.3416 37.9258 25.6615 37.958C25.7139 37.9641 25.7676 37.9666 25.82 37.9666C26.3008 37.9666 26.7992 37.7405 27.2075 37.3323C27.2075 37.3323 28.9692 35.4627 29.7175 34.5529C30.4671 33.6437 30.4379 32.8674 30.4232 32.5012C30.4171 32.2477 29.7114 20.7396 29.4494 16.2455L37.4724 8.22241C40.3158 5.37781 39.8637 1.95012 38.8076 0.895897C38.3414 0.427288 37.3975 0.072708 36.2446 0.0726699Z" fill="url(#paint0_linear_35_636)"/>
</g>
<defs>
<linearGradient id="paint0_linear_35_636" x1="0.695312" y1="19.4998" x2="39.6216" y2="19.4998" gradientUnits="userSpaceOnUse">
<stop stop-color="#A57F41"/>
<stop offset="1" stop-color="#EDC670"/>
</linearGradient>
<clipPath id="clip0_35_636">
<rect width="39" height="39" fill="white" transform="translate(0.660156)"/>
</clipPath>
</defs>
</svg>
