<svg width="40" height="39" viewBox="0 0 40 39" fill="none" xmlns="http://www.w3.org/2000/svg">
<path d="M9.06689 4.875V31.6875H31.0044V4.875H9.06689ZM7.84814 2.4375H32.2231C32.5464 2.4375 32.8564 2.5659 33.0849 2.79446C33.3135 3.02302 33.4419 3.33302 33.4419 3.65625V32.9062C33.4419 33.2295 33.3135 33.5395 33.0849 33.768C32.8564 33.9966 32.5464 34.125 32.2231 34.125H7.84814C7.52491 34.125 7.21492 33.9966 6.98636 33.768C6.7578 33.5395 6.62939 33.2295 6.62939 32.9062V3.65625C6.62939 3.33302 6.7578 3.02302 6.98636 2.79446C7.21492 2.5659 7.52491 2.4375 7.84814 2.4375Z" fill="url(#paint0_linear_35_628)"/>
<path d="M2.97314 31.6875H37.0981V34.125H2.97314V31.6875ZM12.7231 7.3125H17.5981V10.9688H12.7231V7.3125Z" fill="url(#paint1_linear_35_628)"/>
<path d="M15.1606 31.6875H24.9106V29.25C24.9106 27.9571 24.397 26.7171 23.4828 25.8029C22.5685 24.8886 21.3286 24.375 20.0356 24.375C18.7427 24.375 17.5027 24.8886 16.5885 25.8029C15.6743 26.7171 15.1606 27.9571 15.1606 29.25V31.6875ZM20.0356 21.9375C21.975 21.9375 23.835 22.7079 25.2064 24.0793C26.5777 25.4506 27.3481 27.3106 27.3481 29.25V34.125H12.7231V29.25C12.7231 27.3106 13.4936 25.4506 14.8649 24.0793C16.2363 22.7079 18.0962 21.9375 20.0356 21.9375ZM12.7231 14.625H17.5981V18.2812H12.7231V14.625ZM22.4731 7.3125H27.3481V10.9688H22.4731V7.3125ZM22.4731 14.625H27.3481V18.2812H22.4731V14.625Z" fill="url(#paint2_linear_35_628)"/>
<defs>
<linearGradient id="paint0_linear_35_628" x1="6.62939" y1="18.2812" x2="33.4419" y2="18.2812" gradientUnits="userSpaceOnUse">
<stop stop-color="#A57F41"/>
<stop offset="1" stop-color="#EDC670"/>
</linearGradient>
<linearGradient id="paint1_linear_35_628" x1="2.97314" y1="20.7188" x2="37.0981" y2="20.7188" gradientUnits="userSpaceOnUse">
<stop stop-color="#A57F41"/>
<stop offset="1" stop-color="#EDC670"/>
</linearGradient>
<linearGradient id="paint2_linear_35_628" x1="12.7231" y1="20.7188" x2="27.3481" y2="20.7188" gradientUnits="userSpaceOnUse">
<stop stop-color="#A57F41"/>
<stop offset="1" stop-color="#EDC670"/>
</linearGradient>
</defs>
</svg>
