<svg width="40" height="39" viewBox="0 0 40 39" fill="none" xmlns="http://www.w3.org/2000/svg">
<path d="M28.8394 3.65625H11.7769C10.4839 3.65625 9.24395 4.16986 8.32971 5.0841C7.41547 5.99834 6.90186 7.23832 6.90186 8.53125V28.0312C6.90186 29.3242 7.41547 30.5642 8.32971 31.4784C9.24395 32.3926 10.4839 32.9062 11.7769 32.9062H12.9956L10.8019 35.8312C10.7058 35.9593 10.636 36.105 10.5962 36.26C10.5565 36.4151 10.5477 36.5764 10.5704 36.7349C10.593 36.8933 10.6466 37.0457 10.7282 37.1834C10.8097 37.3212 10.9176 37.4415 11.0456 37.5375C11.1736 37.6335 11.3193 37.7034 11.4744 37.7431C11.6294 37.7828 11.7908 37.7916 11.9492 37.769C12.1077 37.7464 12.2601 37.6927 12.3978 37.6112C12.5355 37.5297 12.6558 37.4218 12.7519 37.2938L16.0425 32.9062H24.5737L27.8644 37.2938C28.0583 37.5523 28.347 37.7233 28.667 37.769C28.987 37.8147 29.312 37.7314 29.5706 37.5375C29.8292 37.3436 30.0001 37.0548 30.0459 36.7349C30.0916 36.4149 30.0083 36.0898 29.8144 35.8312L27.6206 32.9062H28.8394C30.1323 32.9062 31.3723 32.3926 32.2865 31.4784C33.2007 30.5642 33.7144 29.3242 33.7144 28.0312V8.53125C33.7144 7.23832 33.2007 5.99834 32.2865 5.0841C31.3723 4.16986 30.1323 3.65625 28.8394 3.65625ZM9.33936 18.2812V12.1875H19.0894V18.2812H9.33936ZM21.5269 12.1875H31.2769V18.2812H21.5269V12.1875ZM11.7769 6.09375H28.8394C29.4858 6.09375 30.1058 6.35056 30.5629 6.80768C31.02 7.2648 31.2769 7.88478 31.2769 8.53125V9.75H9.33936V8.53125C9.33936 7.88478 9.59616 7.2648 10.0533 6.80768C10.5104 6.35056 11.1304 6.09375 11.7769 6.09375ZM28.8394 30.4688H11.7769C11.1304 30.4688 10.5104 30.2119 10.0533 29.7548C9.59616 29.2977 9.33936 28.6777 9.33936 28.0312V20.7188H31.2769V28.0312C31.2769 28.6777 31.02 29.2977 30.5629 29.7548C30.1058 30.2119 29.4858 30.4688 28.8394 30.4688ZM15.4331 26.2031C15.4331 26.5647 15.3259 26.9181 15.125 27.2188C14.9241 27.5194 14.6386 27.7537 14.3046 27.8921C13.9705 28.0305 13.603 28.0667 13.2483 27.9961C12.8937 27.9256 12.568 27.7515 12.3123 27.4958C12.0566 27.2401 11.8825 26.9144 11.812 26.5598C11.7414 26.2052 11.7776 25.8376 11.916 25.5035C12.0544 25.1695 12.2887 24.884 12.5893 24.6831C12.89 24.4822 13.2434 24.375 13.605 24.375C14.0898 24.375 14.5548 24.5676 14.8977 24.9104C15.2405 25.2533 15.4331 25.7183 15.4331 26.2031ZM28.8394 26.2031C28.8394 26.5647 28.7321 26.9181 28.5313 27.2188C28.3304 27.5194 28.0449 27.7537 27.7108 27.8921C27.3768 28.0305 27.0092 28.0667 26.6546 27.9961C26.3 27.9256 25.9742 27.7515 25.7186 27.4958C25.4629 27.2401 25.2888 26.9144 25.2182 26.5598C25.1477 26.2052 25.1839 25.8376 25.3223 25.5035C25.4606 25.1695 25.6949 24.884 25.9956 24.6831C26.2962 24.4822 26.6497 24.375 27.0112 24.375C27.4961 24.375 27.9611 24.5676 28.3039 24.9104C28.6467 25.2533 28.8394 25.7183 28.8394 26.2031Z" fill="url(#paint0_linear_35_616)"/>
<defs>
<linearGradient id="paint0_linear_35_616" x1="6.90186" y1="20.7188" x2="33.7144" y2="20.7188" gradientUnits="userSpaceOnUse">
<stop stop-color="#A57F41"/>
<stop offset="1" stop-color="#EDC670"/>
</linearGradient>
</defs>
</svg>
