<svg width="36" height="31" viewBox="0 0 36 31" fill="none" xmlns="http://www.w3.org/2000/svg">
<path d="M25.7709 7.47916C25.7709 13.3679 26.4184 19.2362 27.6988 24.9792M27.6988 24.9792H27.2292C26.2623 24.9792 25.335 25.3633 24.6513 26.047C23.9675 26.7307 23.5834 27.6581 23.5834 28.625V29.3542M27.6988 24.9792C27.8925 25.8469 28.1006 26.7113 28.323 27.5721L28.6876 28.9896V29.3542H6.81258V28.9896L7.17862 27.5721C7.40055 26.7113 7.60814 25.8469 7.80133 24.9792M9.72925 7.47916C9.72925 13.3679 9.08175 19.2362 7.80133 24.9792M7.80133 24.9792H8.27091C9.23785 24.9792 10.1652 25.3633 10.8489 26.047C11.5326 26.7307 11.9167 27.6581 11.9167 28.625V29.3542M6.08341 7.47916H29.4167M6.08341 13.3125H0.979248V1.64583H34.5209V13.3125H29.4167M17.7501 19.1458C16.9765 19.1458 16.2347 18.8385 15.6877 18.2916C15.1407 17.7446 14.8334 17.0027 14.8334 16.2292C14.8334 15.4556 15.1407 14.7137 15.6877 14.1668C16.2347 13.6198 16.9765 13.3125 17.7501 13.3125C18.5236 13.3125 19.2655 13.6198 19.8125 14.1668C20.3595 14.7137 20.6667 15.4556 20.6667 16.2292C20.6667 17.0027 20.3595 17.7446 19.8125 18.2916C19.2655 18.8385 18.5236 19.1458 17.7501 19.1458Z" stroke="#EBCE7B" stroke-width="1.45833"/>
</svg>
