<svg width="36" height="35" viewBox="0 0 36 35" fill="none" xmlns="http://www.w3.org/2000/svg">
<path d="M7.54167 29.8958H25.7708V19.6875C25.7708 18.8222 26.0274 17.9763 26.5082 17.2569C26.9889 16.5374 27.6722 15.9767 28.4716 15.6455C29.271 15.3144 30.1507 15.2278 30.9994 15.3966C31.848 15.5654 32.6276 15.9821 33.2394 16.5939C33.8513 17.2058 34.268 17.9853 34.4368 18.834C34.6056 19.6826 34.5189 20.5623 34.1878 21.3617C33.8567 22.1612 33.2959 22.8445 32.5765 23.3252C31.857 23.8059 31.0111 24.0625 30.1458 24.0625H29.4167M0.25 34.2708H35.25M22.125 15.3125H3.89583V15.6771L3.98771 15.8229C6.78626 20.2527 8.27141 25.3852 8.27083 30.625M8.27083 0V1.45833C8.27083 3.97237 9.26953 6.38343 11.0472 8.16112C12.8249 9.93881 15.236 10.9375 17.75 10.9375M21.3958 11.6667V6.5625H17.75C16.3963 6.5625 15.098 6.02474 14.1408 5.06752C13.1836 4.11031 12.6458 2.81204 12.6458 1.45833V0" stroke="#EBCE7B" stroke-width="1.45833"/>
</svg>
