<svg width="30" height="33" viewBox="0 0 30 33" fill="none" xmlns="http://www.w3.org/2000/svg">
<path d="M21.25 1.625C21.25 1.39294 21.3422 1.17038 21.5063 1.00628C21.6704 0.842187 21.8929 0.75 22.125 0.75H29.125C29.3571 0.75 29.5796 0.842187 29.7437 1.00628C29.9078 1.17038 30 1.39294 30 1.625V10.375C30 10.6071 29.9078 10.8296 29.7437 10.9937C29.5796 11.1578 29.3571 11.25 29.125 11.25H26.5V31.375C26.5 31.6071 26.4078 31.8296 26.2437 31.9937C26.0796 32.1578 25.8571 32.25 25.625 32.25C25.3929 32.25 25.1704 32.1578 25.0063 31.9937C24.8422 31.8296 24.75 31.6071 24.75 31.375V11.25H22.125C21.8929 11.25 21.6704 11.1578 21.5063 10.9937C21.3422 10.8296 21.25 10.6071 21.25 10.375V1.625ZM19.5 4.25H7.495C6.48337 4.2498 5.50293 4.60019 4.72057 5.24152C3.93821 5.88285 3.40228 6.77549 3.204 7.7675L2.8575 9.5H1.5625C1.2144 9.5 0.880564 9.63828 0.634422 9.88442C0.388281 10.1306 0.25 10.4644 0.25 10.8125C0.25 11.1606 0.388281 11.4944 0.634422 11.7406C0.880564 11.9867 1.2144 12.125 1.5625 12.125H2.3325L2.13825 13.105C1.59332 13.2643 1.11475 13.5961 0.7743 14.0504C0.433853 14.5048 0.24989 15.0573 0.25 15.625V24.375C0.25 25.0712 0.526562 25.7389 1.01884 26.2312C1.51113 26.7234 2.17881 27 2.875 27H3.75V28.75C3.75 29.2141 3.93437 29.6593 4.26256 29.9874C4.59075 30.3156 5.03587 30.5 5.5 30.5C5.96413 30.5 6.40925 30.3156 6.73744 29.9874C7.06563 29.6593 7.25 29.2141 7.25 28.75V27H21.25V28.75C21.25 29.2141 21.4344 29.6593 21.7626 29.9874C22.0908 30.3156 22.5359 30.5 23 30.5V25.25H2.875C2.64294 25.25 2.42038 25.1578 2.25628 24.9937C2.09219 24.8296 2 24.6071 2 24.375V15.625C2 15.3929 2.09219 15.1704 2.25628 15.0063C2.42038 14.8422 2.64294 14.75 2.875 14.75H23V13H3.9425L4.92075 8.1105C5.03965 7.51565 5.3609 6.98034 5.82988 6.59558C6.29887 6.21082 6.88663 6.00037 7.49325 6H19.5V4.25ZM23 20C23 19.5359 22.8156 19.0908 22.4874 18.7626C22.1592 18.4344 21.7141 18.25 21.25 18.25C20.7859 18.25 20.3408 18.4344 20.0126 18.7626C19.6844 19.0908 19.5 19.5359 19.5 20C19.5 20.4641 19.6844 20.9092 20.0126 21.2374C20.3408 21.5656 20.7859 21.75 21.25 21.75C21.7141 21.75 22.1592 21.5656 22.4874 21.2374C22.8156 20.9092 23 20.4641 23 20ZM9 20C9 19.5359 8.81563 19.0908 8.48744 18.7626C8.15925 18.4344 7.71413 18.25 7.25 18.25C6.78587 18.25 6.34075 18.4344 6.01256 18.7626C5.68437 19.0908 5.5 19.5359 5.5 20C5.5 20.4641 5.68437 20.9092 6.01256 21.2374C6.34075 21.5656 6.78587 21.75 7.25 21.75C7.71413 21.75 8.15925 21.5656 8.48744 21.2374C8.81563 20.9092 9 20.4641 9 20Z" fill="#EBCE7B"/>
</svg>
