<svg width="33" height="33" viewBox="0 0 33 33" fill="none" xmlns="http://www.w3.org/2000/svg">
<path d="M25.5874 32.5417H28.0083C29.2333 32.5417 30.2395 31.5938 30.3853 30.3979L32.7916 6.36458H25.4999V0.458328H22.627V6.36458H15.3791L15.8166 9.77708C18.3103 10.4625 20.6437 11.7021 22.0437 13.0729C24.1437 15.1437 25.5874 17.2875 25.5874 20.7875V32.5417ZM0.708252 31.0833V29.625H22.627V31.0833C22.627 31.8708 21.9708 32.5417 21.1249 32.5417H2.16659C1.3645 32.5417 0.708252 31.8708 0.708252 31.0833ZM22.627 20.875C22.627 9.20833 0.708252 9.20833 0.708252 20.875H22.627ZM0.708252 23.7917H22.5833V26.7083H0.708252V23.7917Z" fill="#EBCE7B"/>
</svg>
