<svg width="30" height="31" viewBox="0 0 30 31" fill="none" xmlns="http://www.w3.org/2000/svg">
<path d="M10.8751 19.754V20.6042C10.8751 22.3447 11.5665 24.0139 12.7972 25.2446C14.0279 26.4753 15.6971 27.1667 17.4376 27.1667C19.1781 27.1667 20.8473 26.4753 22.078 25.2446C23.3087 24.0139 24.0001 22.3447 24.0001 20.6042V18.1688C23.0267 17.8247 22.2062 17.1476 21.6837 16.2572C21.1613 15.3667 20.9704 14.3202 21.1449 13.3026C21.3195 12.285 21.8481 11.3619 22.6375 10.6964C23.4268 10.031 24.426 9.66596 25.4584 9.66596C26.4908 9.66596 27.49 10.031 28.2794 10.6964C29.0687 11.3619 29.5974 12.285 29.7719 13.3026C29.9464 14.3202 29.7556 15.3667 29.2331 16.2572C28.7106 17.1476 27.8902 17.8247 26.9167 18.1688V20.6042C26.9167 23.1182 25.9181 25.5293 24.1404 27.307C22.3627 29.0846 19.9516 30.0833 17.4376 30.0833C14.9236 30.0833 12.5125 29.0846 10.7348 27.307C8.95711 25.5293 7.95842 23.1182 7.95842 20.6042V19.754C5.91931 19.4093 4.06818 18.3535 2.73339 16.7739C1.3986 15.1943 0.666431 13.193 0.666748 11.125V3.83334C0.666748 3.05979 0.974039 2.31792 1.52102 1.77094C2.068 1.22396 2.80987 0.916672 3.58341 0.916672L5.04175 0.916672C5.42852 0.916672 5.79946 1.07032 6.07295 1.34381C6.34644 1.6173 6.50008 1.98823 6.50008 2.37501C6.50008 2.76178 6.34644 3.13271 6.07295 3.4062C5.79946 3.67969 5.42852 3.83334 5.04175 3.83334H3.58341V11.125C3.58341 12.6721 4.198 14.1558 5.29196 15.2498C6.38592 16.3438 7.86965 16.9583 9.41675 16.9583C10.9638 16.9583 12.4476 16.3438 13.5415 15.2498C14.6355 14.1558 15.2501 12.6721 15.2501 11.125V3.83334H13.7917C13.405 3.83334 13.034 3.67969 12.7606 3.4062C12.4871 3.13271 12.3334 2.76178 12.3334 2.37501C12.3334 1.98823 12.4871 1.6173 12.7606 1.34381C13.034 1.07032 13.405 0.916672 13.7917 0.916672L15.2501 0.916672C16.0236 0.916672 16.7655 1.22396 17.3125 1.77094C17.8595 2.31792 18.1667 3.05979 18.1667 3.83334V11.125C18.1671 13.193 17.4349 15.1943 16.1001 16.7739C14.7653 18.3535 12.9142 19.4093 10.8751 19.754ZM25.4584 15.5C25.8452 15.5 26.2161 15.3464 26.4896 15.0729C26.7631 14.7994 26.9167 14.4284 26.9167 14.0417C26.9167 13.6549 26.7631 13.284 26.4896 13.0105C26.2161 12.737 25.8452 12.5833 25.4584 12.5833C25.0716 12.5833 24.7007 12.737 24.4272 13.0105C24.1537 13.284 24.0001 13.6549 24.0001 14.0417C24.0001 14.4284 24.1537 14.7994 24.4272 15.0729C24.7007 15.3464 25.0716 15.5 25.4584 15.5Z" fill="#EBCE7B"/>
</svg>
