<svg width="36" height="35" viewBox="0 0 36 35" fill="none" xmlns="http://www.w3.org/2000/svg">
<path d="M24.8125 10.9375V14.2188C24.8125 14.5088 24.6973 14.787 24.4921 14.9921C24.287 15.1973 24.0088 15.3125 23.7188 15.3125H22.625V10.9375H13.875V15.3125H12.7812C12.4912 15.3125 12.213 15.1973 12.0079 14.9921C11.8027 14.787 11.6875 14.5088 11.6875 14.2188V10.9375H7.3125V30.625H29.1875V10.9375H24.8125ZM11.6875 8.75C11.6875 7.00952 12.3789 5.34032 13.6096 4.10961C14.8403 2.8789 16.5095 2.1875 18.25 2.1875C19.9905 2.1875 21.6597 2.8789 22.8904 4.10961C24.1211 5.34032 24.8125 7.00952 24.8125 8.75H30.2812C30.5713 8.75 30.8495 8.86523 31.0546 9.07035C31.2598 9.27547 31.375 9.55367 31.375 9.84375V31.7188C31.375 32.0088 31.2598 32.287 31.0546 32.4921C30.8495 32.6973 30.5713 32.8125 30.2812 32.8125H6.21875C5.92867 32.8125 5.65047 32.6973 5.44535 32.4921C5.24023 32.287 5.125 32.0088 5.125 31.7188V9.84375C5.125 9.55367 5.24023 9.27547 5.44535 9.07035C5.65047 8.86523 5.92867 8.75 6.21875 8.75H11.6875ZM13.875 8.75H22.625C22.625 7.58968 22.1641 6.47688 21.3436 5.65641C20.5231 4.83594 19.4103 4.375 18.25 4.375C17.0897 4.375 15.9769 4.83594 15.1564 5.65641C14.3359 6.47688 13.875 7.58968 13.875 8.75Z" fill="#EBCE7B"/>
<path d="M7.3125 24.0625H29.1875V26.25H7.3125V24.0625Z" fill="#EBCE7B"/>
</svg>
