<svg width="220" height="42" viewBox="0 0 220 42" fill="none" xmlns="http://www.w3.org/2000/svg">
<g clip-path="url(#clip0_93_142)">
<path d="M0.661924 41.8929H0V34.5938H0.661924V41.8929Z" fill="white"/>
<path d="M11.1286 41.8929H10.4736L6.92951 35.7857L6.89504 35.7924V41.8996H6.24001V34.6004H6.90193L10.446 40.7076L10.4805 40.7009V34.5938H11.1355V41.8929H11.1286Z" fill="white"/>
<path d="M20.4024 38.4911H17.2652V41.8929H16.6101V34.5938H20.8644V35.1228H17.2652V37.9554H20.4024V38.4911Z" fill="white"/>
<path d="M26.4011 38.5915V41.8929H25.7461V34.6004H28.0214C28.7316 34.6004 29.2763 34.7745 29.6556 35.1161C30.0348 35.4576 30.221 35.9598 30.221 36.6161C30.221 37.0045 30.1175 37.346 29.9245 37.6473C29.7245 37.9487 29.4418 38.1696 29.0764 38.317C29.4763 38.4308 29.7659 38.6317 29.9452 38.9263C30.1244 39.221 30.2072 39.5893 30.2072 40.0245V40.7143C30.2072 40.942 30.2279 41.1429 30.2761 41.3237C30.3244 41.5045 30.4002 41.6518 30.5174 41.7656V41.8862H29.8486C29.7383 41.7656 29.6556 41.5982 29.6142 41.3839C29.5728 41.1696 29.5521 40.942 29.5521 40.7009V40.0312C29.5521 39.5893 29.428 39.2344 29.1867 38.9732C28.9454 38.712 28.6075 38.5781 28.1869 38.5781H26.4011V38.5915ZM26.4011 38.0826H27.9456C28.5041 38.0826 28.9178 37.9487 29.1729 37.6875C29.4349 37.4263 29.5659 37.0714 29.5659 36.6161C29.5659 36.1406 29.4418 35.7723 29.1867 35.5112C28.9316 35.2567 28.5455 35.1228 28.0283 35.1228H26.4011V38.0826Z" fill="white"/>
<path d="M55.8015 35.1295H53.5813V41.8929H52.9263V35.1295H50.713V34.6004H55.8015V35.1295Z" fill="white"/>
<path d="M64.4066 38.3638H61.29V41.3839H64.8685V41.8929H60.635V34.5938H64.8409V35.1228H61.29V37.8482H64.4066V38.3638Z" fill="white"/>
<path d="M74.1148 39.7768L74.1286 39.8036C74.1217 40.5134 73.9148 41.0558 73.5218 41.4375C73.1219 41.8125 72.5703 42 71.867 42C71.1361 42 70.5569 41.7656 70.1294 41.2902C69.7019 40.8147 69.4882 40.1384 69.4882 39.2612V37.2388C69.4882 36.3683 69.7019 35.692 70.1363 35.2098C70.5638 34.7277 71.143 34.4933 71.8739 34.4933C72.5841 34.4933 73.1357 34.6741 73.5287 35.0424C73.9217 35.4107 74.1286 35.9598 74.1355 36.683L74.1217 36.7098H73.5149C73.4942 36.1339 73.3494 35.7054 73.0805 35.4308C72.8047 35.1562 72.4048 35.0156 71.8739 35.0156C71.3292 35.0156 70.9017 35.2031 70.5983 35.5848C70.2949 35.9598 70.1432 36.5089 70.1432 37.2188V39.2545C70.1432 39.9777 70.2949 40.5335 70.5983 40.9085C70.9017 41.2835 71.3292 41.4777 71.8739 41.4777C72.4048 41.4777 72.8047 41.3438 73.0805 41.0692C73.3494 40.8013 73.5011 40.3594 73.5149 39.7634H74.1148V39.7768Z" fill="white"/>
<path d="M84.1333 41.8929H83.4851V38.5313H79.9204V41.8929H79.2654V34.5938H79.9204V38.0156H83.4851V34.5938H84.1333V41.8929Z" fill="white"/>
<path d="M96.3306 38.8728V41.8929H95.6756V34.5938H98.0268C98.7232 34.5938 99.261 34.7879 99.6402 35.183C100.019 35.5714 100.212 36.0871 100.212 36.7299C100.212 37.3795 100.019 37.8951 99.6402 38.2835C99.261 38.6719 98.7232 38.8661 98.0268 38.8661H96.3306V38.8728ZM96.3306 38.3437H98.0268C98.537 38.3437 98.9162 38.1897 99.1713 37.8884C99.4265 37.5804 99.5506 37.1987 99.5506 36.7433C99.5506 36.2812 99.4265 35.8929 99.1713 35.5848C98.9162 35.2768 98.537 35.1295 98.0268 35.1295H96.3306V38.3437Z" fill="white"/>
<path d="M105.901 38.5915V41.8929H105.246V34.6004H107.521C108.231 34.6004 108.776 34.7745 109.155 35.1161C109.535 35.4576 109.721 35.9598 109.721 36.6161C109.721 37.0045 109.617 37.346 109.424 37.6473C109.224 37.9487 108.942 38.1696 108.576 38.317C108.976 38.4308 109.266 38.6317 109.445 38.9263C109.624 39.221 109.707 39.5893 109.707 40.0245V40.7143C109.707 40.942 109.728 41.1429 109.776 41.3237C109.824 41.5045 109.9 41.6518 110.017 41.7656V41.8862H109.348C109.238 41.7656 109.155 41.5982 109.114 41.3839C109.073 41.1696 109.052 40.942 109.052 40.7009V40.0312C109.052 39.5893 108.928 39.2344 108.686 38.9732C108.445 38.712 108.107 38.5781 107.687 38.5781H105.901V38.5915ZM105.901 38.0826H107.445C108.004 38.0826 108.418 37.9487 108.673 37.6875C108.935 37.4263 109.059 37.0714 109.059 36.6161C109.059 36.1406 108.935 35.7723 108.68 35.5112C108.424 35.2567 108.038 35.1228 107.521 35.1228H105.894V38.0826H105.901Z" fill="white"/>
<path d="M115.899 41.8929H115.237V34.5938H115.899V41.8929Z" fill="white"/>
<path d="M123.38 40.6339L123.511 41.0826H123.545L123.683 40.6339L125.566 34.6004H126.276L123.828 41.8995H123.235L120.787 34.6004H121.497L123.38 40.6339Z" fill="white"/>
<path d="M144.03 35.1295H141.81V41.8929H141.155V35.1295H138.942V34.6004H144.03V35.1295Z" fill="white"/>
<path d="M152.629 38.3638H149.512V41.3839H153.091V41.8929H148.857V34.5938H153.063V35.1228H149.512V37.8482H152.629V38.3638Z" fill="white"/>
<path d="M164.729 41.3839H167.936V41.8929H164.074V34.5938H164.736V41.3839H164.729Z" fill="white"/>
<path d="M173.527 41.8929H172.866V34.5938H173.527V41.8929Z" fill="white"/>
<path d="M179.912 34.5938L182.119 40.9821H182.153L184.366 34.5938H185.215V41.8929H184.566V38.692L184.628 35.7121L184.594 35.7054L182.353 41.8929H181.919L179.685 35.7121L179.65 35.7188L179.712 38.692V41.8929H179.071V34.5938H179.912Z" fill="white"/>
<path d="M191.42 41.8929H190.758V34.5938H191.42V41.8929Z" fill="white"/>
<path d="M201.266 35.1295H199.046V41.8929H198.391V35.1295H196.178V34.6004H201.266V35.1295Z" fill="white"/>
<path d="M209.871 38.3638H206.755V41.3839H210.333V41.8929H206.1V34.5938H210.306V35.1228H206.755V37.8482H209.871V38.3638Z" fill="white"/>
<path d="M215.249 41.8929V34.5938H217.194C218.021 34.5938 218.69 34.8884 219.214 35.4844C219.738 36.0804 220 36.8438 220 37.7746V38.7188C220 39.6562 219.738 40.4196 219.214 41.0089C218.69 41.5982 218.014 41.8929 217.194 41.8929H215.249ZM215.904 35.1295V41.3839H217.194C217.835 41.3839 218.352 41.1362 218.752 40.6339C219.152 40.1384 219.352 39.5022 219.352 38.7254V37.7679C219.352 37.0045 219.152 36.3683 218.752 35.8728C218.352 35.3772 217.835 35.1295 217.194 35.1295H215.904Z" fill="white"/>
<path d="M132.723 35.5647H132.757L132.833 35.7857V35.779L134.853 41.8929H135.529L133.04 34.5938H132.447L129.937 41.8929H130.599" fill="white"/>
<path d="M37.7779 35.5647H37.8124L37.8813 35.7857L37.8882 35.779L39.9016 41.8929H40.5773L38.0951 34.5938H37.5021L34.9854 41.8929H35.6474" fill="white"/>
<path d="M23.2018 0.0201464C22.8502 -0.0535143 22.5054 0.1072 22.3675 0.415236L11.9146 22.855L1.43417 0.415236C1.29627 0.1072 0.951515 -0.0535143 0.599868 0.0201464C0.248221 0.0871106 0 0.375057 0 0.709878V25.346H1.50312V4.07149L11.232 24.9041C11.3423 25.1585 11.6112 25.3193 11.9146 25.3193C12.218 25.3193 12.4869 25.1585 12.5972 24.9108L22.2986 4.07149L22.333 25.3393H23.8361L23.7948 0.709878C23.7948 0.375057 23.5466 0.0871106 23.2018 0.0201464Z" fill="white"/>
<path d="M69.2814 7.21875C64.4755 7.21875 60.7177 11.1964 60.7177 16.279C60.7177 21.3616 64.4824 25.3393 69.2814 25.3393C69.3158 25.3393 69.3503 25.3393 69.3917 25.3393C72.4669 25.3393 74.9353 24.1071 76.7418 21.6696L76.9555 21.375L75.7627 20.5045L75.5352 20.7991C73.9355 22.8951 71.9084 23.8996 69.2882 23.8728C65.6132 23.8728 62.5932 20.8862 62.2553 17.0022H77.8519V16.2723C77.8519 11.2835 74.0045 7.21875 69.2814 7.21875ZM62.2484 15.5558C62.5863 11.6719 65.6132 8.68527 69.2814 8.68527C72.9909 8.68527 76.1419 11.7924 76.335 15.5558H62.2484Z" fill="white"/>
<path d="M143.265 0.562501L132.474 24.4755L132.026 25.4933H133.695L143.941 2.67857L154.042 25.0246L154.201 25.4933H155.869L144.63 0.562501C144.41 0.0602685 143.479 0.0669649 143.265 0.562501Z" fill="white"/>
<path d="M164.722 15.6897C161.847 14.7924 159.137 13.942 159.137 12.2277C159.137 10.3527 161.44 8.8259 164.267 8.8259C167.094 8.8259 169.397 10.3527 169.397 12.2277V12.596H170.9V12.2277C170.9 9.54911 167.929 7.36607 164.267 7.36607C160.613 7.36607 157.634 9.54911 157.634 12.2277C157.655 15.067 161.151 16.1518 164.529 17.2031C167.377 18.0871 170.066 18.9241 170.066 20.6317C170.066 22.5067 167.467 24.0335 164.267 24.0335C161.068 24.0335 158.469 22.5067 158.469 20.6317V20.2634H156.966V20.6317C156.966 23.3571 160.172 25.4933 164.267 25.4933C168.363 25.4933 171.569 23.3571 171.569 20.6384C171.59 17.8393 168.101 16.7478 164.722 15.6897Z" fill="white"/>
<path d="M181.546 15.6897C178.678 14.7924 175.961 13.942 175.961 12.2277C175.961 10.3527 178.264 8.8259 181.091 8.8259C183.918 8.8259 186.221 10.3527 186.221 12.2277V12.596H187.724V12.2277C187.724 9.54911 184.753 7.36607 181.091 7.36607C177.437 7.36607 174.458 9.54911 174.458 12.2277C174.479 15.067 177.975 16.1518 181.353 17.2031C184.201 18.0871 186.89 18.9241 186.89 20.6317C186.89 22.5067 184.291 24.0335 181.091 24.0335C177.892 24.0335 175.293 22.5067 175.293 20.6317V20.2634H173.789V20.6317C173.789 23.3571 176.996 25.4933 181.091 25.4933C185.187 25.4933 188.393 23.3571 188.393 20.6384C188.414 17.8393 184.925 16.7478 181.546 15.6897Z" fill="white"/>
<path d="M199.184 7.37277C194.378 7.37277 190.62 11.3504 190.62 16.433C190.62 21.5156 194.385 25.4933 199.184 25.4933C199.218 25.4933 199.253 25.4933 199.294 25.4933C202.369 25.4933 204.838 24.2612 206.644 21.8237L206.858 21.529L205.658 20.6585L205.431 20.9531C203.852 23.0223 201.838 24.0268 199.287 24.0268C199.253 24.0268 199.218 24.0268 199.191 24.0268C195.516 24.0268 192.496 21.0402 192.158 17.1562H207.761V16.4263C207.748 11.4308 203.907 7.37277 199.184 7.37277ZM192.151 15.7031C192.489 11.8192 195.516 8.83259 199.184 8.83259C202.893 8.83259 206.044 11.9397 206.237 15.7031H192.151Z" fill="white"/>
<path d="M219.662 8.83259V7.37277H214.008V3.20089H212.505V7.36607H209.23V8.82589H212.505V20.5647C212.546 23.6987 214.877 25.4933 218.911 25.4933H219.662V24.0335H218.911C216.697 24.0335 214.05 23.4308 214.001 20.5647V8.83259H219.662Z" fill="white"/>
<path d="M45.521 16.9219H48.4239L57.6701 25.0379L57.8907 25.2522H60.1523L49.8304 16.192L58.7113 8.38393L60.1523 7.13169H57.8907L48.4239 15.4621H45.521" fill="white"/>
<path d="M34.3442 13.2589H31.4V16.1183H34.3442V13.2589Z" fill="white"/>
<path d="M37.7779 13.2589H34.8337V16.1183H37.7779V13.2589Z" fill="white"/>
<path d="M34.3442 16.5938H31.4V19.4531H34.3442V16.5938Z" fill="white"/>
<path d="M37.7779 16.5938H34.8337V19.4531H37.7779V16.5938Z" fill="white"/>
<path d="M143.844 21.308C145.737 21.308 147.271 19.818 147.271 17.9799C147.271 16.1418 145.737 14.6518 143.844 14.6518C141.952 14.6518 140.417 16.1418 140.417 17.9799C140.417 19.818 141.952 21.308 143.844 21.308Z" fill="white"/>
<path d="M41.6943 10.9286C40.074 8.63839 37.4539 7.21875 34.6614 7.21875C29.6831 7.21875 25.6289 11.2835 25.6289 16.279C25.6289 21.2746 29.6831 25.3393 34.6614 25.3393C37.4539 25.3393 40.074 23.9263 41.6943 21.6295V25.3393H43.3629V7.21875H41.6943V10.9286ZM34.6614 23.8862C30.6002 23.8862 27.2975 20.4777 27.2975 16.2857C27.2975 12.0938 30.6002 8.68527 34.6614 8.68527C38.5364 8.68527 41.6943 12.0938 41.6943 16.2857C41.6943 20.4777 38.5364 23.8862 34.6614 23.8862Z" fill="white"/>
<path d="M131.185 9.32812C129.84 9.22768 129.585 9.03348 128.234 9C127.724 11.4576 126.945 13.9888 125.876 16.2723C125.414 17.2567 124.924 18.2478 124.373 19.192C122.166 23.0022 119.07 26.6049 115.264 28.9888C114.913 29.2031 114.561 29.4107 114.203 29.6116C113.844 29.8058 113.479 30 113.106 30.1741C112.734 30.3549 112.362 30.5223 111.982 30.683C111.603 30.8438 111.217 30.9911 110.831 31.1317C110.024 31.4196 109.204 31.6741 108.376 31.9018L108.356 31.9219L108.342 31.8951L108.321 31.9018C109.962 31.2188 111.465 30.4018 112.899 29.3638C114.754 28.0179 116.492 26.3304 118.057 24.4554L111.058 7.23214H112.72L112.879 7.70089L119.112 23.1094C121.084 20.471 122.683 17.558 123.711 14.7187C124.38 12.8705 124.842 10.9219 125.131 8.98661C124.752 8.95312 124.359 8.95982 123.98 8.95312C123.373 8.93973 122.773 8.92634 122.166 8.91964C122.725 8.39732 127.772 3.22768 128.365 2.74553C128.496 2.75223 130.502 8.88616 131.185 9.32812ZM110.748 14.2902C110.748 10.3259 107.914 7.21875 104.301 7.21875C101.895 7.21875 99.7091 8.68527 98.6059 10.9487C97.5027 8.68527 95.317 7.21875 92.9106 7.21875C90.9731 7.21875 89.1735 8.14955 87.9669 9.72321V7.21875H86.4638V25.3393H87.9669V14.2902C87.9669 11.1429 90.1388 8.67857 92.9106 8.67857C95.6824 8.67857 97.8544 11.1429 97.8544 14.2902L97.8957 24.683L97.9647 25.3795H99.4264L99.3506 14.2902C99.3506 11.1429 101.523 8.67857 104.294 8.67857C107.066 8.67857 109.238 11.1429 109.238 14.2902L109.279 24.683L109.348 25.3795H110.81L110.748 14.2902Z" fill="#CC9B50"/>
</g>
<defs>
<clipPath id="clip0_93_142">
<rect width="220" height="42" fill="white"/>
</clipPath>
</defs>
</svg>
