<svg width="16" height="10" viewBox="0 0 16 10" fill="none" xmlns="http://www.w3.org/2000/svg">
<path d="M8.103 7.77803L14.81 1.08003C14.8751 1.01458 14.9527 0.962858 15.0382 0.927934C15.1236 0.89301 15.2152 0.875591 15.3075 0.87671C15.3999 0.877829 15.491 0.897463 15.5756 0.934449C15.6602 0.971434 15.7365 1.02502 15.8 1.09203C15.9301 1.2291 16.0016 1.41149 15.9994 1.60047C15.9972 1.78944 15.9213 1.97009 15.788 2.10403L8.585 9.29703C8.52037 9.3621 8.44341 9.41364 8.35863 9.44862C8.27386 9.4836 8.18295 9.50133 8.09124 9.50077C7.99953 9.50021 7.90885 9.48138 7.8245 9.44536C7.74016 9.40935 7.66383 9.35688 7.6 9.29103L0.205 1.72003C0.0741232 1.58449 0.000976562 1.40344 0.000976562 1.21503C0.000976562 1.02662 0.0741232 0.845566 0.205 0.71003C0.269313 0.643805 0.34626 0.591158 0.431286 0.555207C0.516312 0.519256 0.607687 0.500732 0.700001 0.500732C0.792314 0.500732 0.883689 0.519256 0.968715 0.555207C1.05374 0.591158 1.13069 0.643805 1.195 0.71003L8.103 7.77803Z" fill="#AD9152"/>
</svg>
